STARTFONT 2.1
COMMENT
COMMENT  Copyright (c) 2001, Poonlap Veerathanabutr
COMMENT
COMMENT  License to copy and distribute for both commercial and
COMMENT  non-commercial use is herby granted, provided this notice
COMMENT  is preserved.
COMMENT
COMMENT  Poonlap.Veerathanabutr@japan.sun.com
COMMENT  This font is my hobby, there is nothing related with Sun Microsystems.
COMMENT  The motivation is I want to use some Thai font with emacs but I don't 
COMMENT  like the default one. This font is a bit big but the "head" of thai shows
COMMENT  apparently which I think it is important.
COMMENT
COMMENT  Produced with bdfedit, a tcl/tk font editing program
COMMENT  written by Thomas A. Fine
FONT -poonlap-fixed-medium-r-normal--20-140-100-100-m-11-tis620-0
SIZE 20 100 100
FONTBOUNDINGBOX 22 26 -11 -6
STARTPROPERTIES 11
FOUNDRY "poonlap"
FAMILY_NAME "fixed"
WEIGHT_NAME "Medium"
SLANT "R"
SETWIDTH_NAME "Normal"
SPACING "c"
CHARSET_REGISTRY "ISO-8859"
CHARSET_ENCODING "1"
COPYRIGHT "Copyright (c) 2001 Poonlap Veerathanabutr Poonlap.Veerathanabutr@japan.sun.com"
FONT_ASCENT  20
FONT_DESCENT 6
ENDPROPERTIES
CHARS 191
STARTCHAR space
ENCODING 32
SWIDTH 550 0
DWIDTH 11 0
BBX 0 0 0 0
BITMAP
ENDCHAR
STARTCHAR exclam
ENCODING 33
SWIDTH 550 0
DWIDTH 11 0
BBX 2 12 4 0
BITMAP
c0
c0
c0
c0
c0
c0
40
40
00
00
c0
c0
ENDCHAR
STARTCHAR quotedbl
ENCODING 34
SWIDTH 550 0
DWIDTH 11 0
BBX 6 5 3 7
BITMAP
cc
cc
cc
44
44
ENDCHAR
STARTCHAR numbersign
ENCODING 35
SWIDTH 550 0
DWIDTH 11 0
BBX 8 15 1 -2
BITMAP
12
12
12
12
12
7f
24
24
24
fe
24
24
24
24
24
ENDCHAR
STARTCHAR dollar
ENCODING 36
SWIDTH 550 0
DWIDTH 11 0
BBX 6 15 2 -2
BITMAP
10
10
74
8c
84
80
60
18
04
84
c4
b8
10
10
10
ENDCHAR
STARTCHAR percent
ENCODING 37
SWIDTH 550 0
DWIDTH 11 0
BBX 9 12 1 0
BITMAP
3800
4400
4400
4400
3980
0e00
3000
ce00
1100
1100
1100
0e00
ENDCHAR
STARTCHAR ampersand
ENCODING 38
SWIDTH 550 0
DWIDTH 11 0
BBX 7 10 2 0
BITMAP
38
40
40
40
20
74
88
88
98
66
ENDCHAR
STARTCHAR quoteright
ENCODING 39
SWIDTH 550 0
DWIDTH 11 0
BBX 4 5 3 7
BITMAP
30
30
60
40
80
ENDCHAR
STARTCHAR parenleft
ENCODING 40
SWIDTH 550 0
DWIDTH 11 0
BBX 3 14 5 -2
BITMAP
20
40
40
80
80
80
80
80
80
80
80
40
40
20
ENDCHAR
STARTCHAR parenright
ENCODING 41
SWIDTH 550 0
DWIDTH 11 0
BBX 3 14 3 -2
BITMAP
80
40
40
20
20
20
20
20
20
20
20
40
40
80
ENDCHAR
STARTCHAR asterisk
ENCODING 42
SWIDTH 550 0
DWIDTH 11 0
BBX 7 8 2 3
BITMAP
10
10
10
fe
10
28
44
44
ENDCHAR
STARTCHAR plus
ENCODING 43
SWIDTH 550 0
DWIDTH 11 0
BBX 9 9 1 1
BITMAP
0800
0800
0800
0800
ff80
0800
0800
0800
0800
ENDCHAR
STARTCHAR comma
ENCODING 44
SWIDTH 550 0
DWIDTH 11 0
BBX 4 5 3 -3
BITMAP
30
30
60
40
80
ENDCHAR
STARTCHAR minus
ENCODING 45
SWIDTH 550 0
DWIDTH 11 0
BBX 9 1 1 5
BITMAP
ff80
ENDCHAR
STARTCHAR period
ENCODING 46
SWIDTH 550 0
DWIDTH 11 0
BBX 2 2 4 0
BITMAP
c0
c0
ENDCHAR
STARTCHAR slash
ENCODING 47
SWIDTH 550 0
DWIDTH 11 0
BBX 8 16 1 -3
BITMAP
01
01
02
02
04
04
08
08
10
10
20
20
40
40
80
80
ENDCHAR
STARTCHAR zero
ENCODING 48
SWIDTH 550 0
DWIDTH 11 0
BBX 7 12 2 0
BITMAP
38
44
82
82
82
82
82
82
82
82
44
38
ENDCHAR
STARTCHAR one
ENCODING 49
SWIDTH 550 0
DWIDTH 11 0
BBX 7 12 2 0
BITMAP
30
d0
10
10
10
10
10
10
10
10
10
fe
ENDCHAR
STARTCHAR two
ENCODING 50
SWIDTH 550 0
DWIDTH 11 0
BBX 8 12 1 0
BITMAP
1c
22
41
41
01
02
04
08
10
21
41
ff
ENDCHAR
STARTCHAR three
ENCODING 51
SWIDTH 550 0
DWIDTH 11 0
BBX 7 12 2 0
BITMAP
78
84
02
02
04
38
04
02
02
02
84
78
ENDCHAR
STARTCHAR four
ENCODING 52
SWIDTH 550 0
DWIDTH 11 0
BBX 7 12 2 0
BITMAP
0c
14
14
24
24
44
44
84
fe
04
04
1e
ENDCHAR
STARTCHAR five
ENCODING 53
SWIDTH 550 0
DWIDTH 11 0
BBX 8 12 1 0
BITMAP
7e
40
40
40
5c
62
01
01
01
01
c2
3c
ENDCHAR
STARTCHAR six
ENCODING 54
SWIDTH 550 0
DWIDTH 11 0
BBX 7 12 2 0
BITMAP
1c
60
40
80
80
b8
c4
82
82
82
44
38
ENDCHAR
STARTCHAR seven
ENCODING 55
SWIDTH 550 0
DWIDTH 11 0
BBX 7 12 2 0
BITMAP
fe
82
02
02
04
04
04
04
08
08
08
08
ENDCHAR
STARTCHAR eight
ENCODING 56
SWIDTH 550 0
DWIDTH 11 0
BBX 7 12 2 0
BITMAP
38
44
82
82
44
38
44
82
82
82
44
38
ENDCHAR
STARTCHAR nine
ENCODING 57
SWIDTH 550 0
DWIDTH 11 0
BBX 7 12 2 0
BITMAP
38
44
82
82
82
46
3a
02
02
04
0c
70
ENDCHAR
STARTCHAR colon
ENCODING 58
SWIDTH 550 0
DWIDTH 11 0
BBX 2 8 4 0
BITMAP
c0
c0
00
00
00
00
c0
c0
ENDCHAR
STARTCHAR semicolon
ENCODING 59
SWIDTH 550 0
DWIDTH 11 0
BBX 4 11 2 -3
BITMAP
30
30
00
00
00
00
30
30
60
40
80
ENDCHAR
STARTCHAR less
ENCODING 60
SWIDTH 550 0
DWIDTH 11 0
BBX 10 9 0 1
BITMAP
00c0
0300
0c00
3000
c000
3000
0c00
0300
00c0
ENDCHAR
STARTCHAR equal
ENCODING 61
SWIDTH 550 0
DWIDTH 11 0
BBX 9 4 1 3
BITMAP
ff80
0000
0000
ff80
ENDCHAR
STARTCHAR greater
ENCODING 62
SWIDTH 550 0
DWIDTH 11 0
BBX 10 9 0 1
BITMAP
c000
3000
0c00
0300
00c0
0300
0c00
3000
c000
ENDCHAR
STARTCHAR question
ENCODING 63
SWIDTH 550 0
DWIDTH 11 0
BBX 7 11 2 0
BITMAP
7c
82
82
02
02
1c
10
10
00
18
18
ENDCHAR
STARTCHAR at
ENCODING 64
SWIDTH 550 0
DWIDTH 11 0
BBX 8 13 2 -1
BITMAP
38
44
82
82
8e
92
92
92
8f
80
80
43
3c
ENDCHAR
STARTCHAR A
ENCODING 65
SWIDTH 550 0
DWIDTH 11 0
BBX 9 11 1 0
BITMAP
0800
0800
1400
1400
2200
2200
4100
7f00
8080
8080
8080
ENDCHAR
STARTCHAR B
ENCODING 66
SWIDTH 550 0
DWIDTH 11 0
BBX 8 11 2 0
BITMAP
f8
84
82
82
84
fc
82
81
81
82
fc
ENDCHAR
STARTCHAR C
ENCODING 67
SWIDTH 550 0
DWIDTH 11 0
BBX 9 11 1 0
BITMAP
1e00
6100
4080
8000
8000
8000
8000
8000
4080
6100
1e00
ENDCHAR
STARTCHAR D
ENCODING 68
SWIDTH 550 0
DWIDTH 11 0
BBX 8 11 2 0
BITMAP
f8
86
82
81
81
81
81
81
82
86
f8
ENDCHAR
STARTCHAR E
ENCODING 69
SWIDTH 550 0
DWIDTH 11 0
BBX 7 11 2 0
BITMAP
fe
80
80
80
80
fc
80
80
80
80
fe
ENDCHAR
STARTCHAR F
ENCODING 70
SWIDTH 550 0
DWIDTH 11 0
BBX 7 11 2 0
BITMAP
fe
80
80
80
80
f0
80
80
80
80
80
ENDCHAR
STARTCHAR G
ENCODING 71
SWIDTH 550 0
DWIDTH 11 0
BBX 9 11 1 0
BITMAP
1e00
2100
4080
8000
8000
8000
8380
8080
4080
2100
1e00
ENDCHAR
STARTCHAR H
ENCODING 72
SWIDTH 550 0
DWIDTH 11 0
BBX 7 11 2 0
BITMAP
82
82
82
82
82
fe
82
82
82
82
82
ENDCHAR
STARTCHAR I
ENCODING 73
SWIDTH 550 0
DWIDTH 11 0
BBX 5 11 3 0
BITMAP
f8
20
20
20
20
20
20
20
20
20
f8
ENDCHAR
STARTCHAR J
ENCODING 74
SWIDTH 550 0
DWIDTH 11 0
BBX 7 11 1 0
BITMAP
0e
02
02
02
02
02
82
82
82
44
38
ENDCHAR
STARTCHAR K
ENCODING 75
SWIDTH 550 0
DWIDTH 11 0
BBX 7 11 2 0
BITMAP
82
82
84
88
90
b0
c8
84
84
82
82
ENDCHAR
STARTCHAR L
ENCODING 76
SWIDTH 550 0
DWIDTH 11 0
BBX 7 11 3 0
BITMAP
80
80
80
80
80
80
80
80
80
80
fe
ENDCHAR
STARTCHAR M
ENCODING 77
SWIDTH 550 0
DWIDTH 11 0
BBX 9 11 1 0
BITMAP
c180
c180
a280
a280
9480
9480
8880
8880
8080
8080
8080
ENDCHAR
STARTCHAR N
ENCODING 78
SWIDTH 550 0
DWIDTH 11 0
BBX 7 11 2 0
BITMAP
c2
c2
a2
a2
92
92
8a
8a
86
86
82
ENDCHAR
STARTCHAR O
ENCODING 79
SWIDTH 550 0
DWIDTH 11 0
BBX 9 11 1 0
BITMAP
1c00
6300
4100
8080
8080
8080
8080
8080
4100
6300
1c00
ENDCHAR
STARTCHAR P
ENCODING 80
SWIDTH 550 0
DWIDTH 11 0
BBX 8 11 2 0
BITMAP
fc
82
81
81
82
fc
80
80
80
80
80
ENDCHAR
STARTCHAR Q
ENCODING 81
SWIDTH 550 0
DWIDTH 11 0
BBX 9 12 1 -1
BITMAP
1c00
6300
4100
8080
8080
8080
8080
8880
4500
6300
1d00
0080
ENDCHAR
STARTCHAR R
ENCODING 82
SWIDTH 550 0
DWIDTH 11 0
BBX 8 11 2 0
BITMAP
fc
82
81
81
82
fc
88
84
84
82
81
ENDCHAR
STARTCHAR S
ENCODING 83
SWIDTH 550 0
DWIDTH 11 0
BBX 8 11 1 0
BITMAP
3c
42
81
80
40
3c
02
01
81
42
3c
ENDCHAR
STARTCHAR T
ENCODING 84
SWIDTH 550 0
DWIDTH 11 0
BBX 9 11 1 0
BITMAP
ff80
0800
0800
0800
0800
0800
0800
0800
0800
0800
0800
ENDCHAR
STARTCHAR U
ENCODING 85
SWIDTH 550 0
DWIDTH 11 0
BBX 8 11 1 0
BITMAP
81
81
81
81
81
81
81
81
81
42
3c
ENDCHAR
STARTCHAR V
ENCODING 86
SWIDTH 550 0
DWIDTH 11 0
BBX 9 11 1 0
BITMAP
8080
8080
8080
4100
4100
2200
2200
1400
1400
0800
0800
ENDCHAR
STARTCHAR W
ENCODING 87
SWIDTH 550 0
DWIDTH 11 0
BBX 9 11 1 0
BITMAP
8080
8080
8880
8880
8880
5500
5500
5500
5500
2200
2200
ENDCHAR
STARTCHAR X
ENCODING 88
SWIDTH 550 0
DWIDTH 11 0
BBX 7 11 2 0
BITMAP
82
82
44
44
28
10
28
44
44
82
82
ENDCHAR
STARTCHAR Y
ENCODING 89
SWIDTH 550 0
DWIDTH 11 0
BBX 7 11 2 0
BITMAP
82
82
44
44
28
28
10
10
10
10
10
ENDCHAR
STARTCHAR Z
ENCODING 90
SWIDTH 550 0
DWIDTH 11 0
BBX 7 11 2 0
BITMAP
fe
02
02
04
08
10
20
40
80
80
fe
ENDCHAR
STARTCHAR bracketleft
ENCODING 91
SWIDTH 550 0
DWIDTH 11 0
BBX 3 15 5 -3
BITMAP
e0
80
80
80
80
80
80
80
80
80
80
80
80
80
e0
ENDCHAR
STARTCHAR backslash
ENCODING 92
SWIDTH 550 0
DWIDTH 11 0
BBX 8 16 2 -3
BITMAP
80
80
40
40
20
20
10
10
08
08
04
04
02
02
01
01
ENDCHAR
STARTCHAR bracketright
ENCODING 93
SWIDTH 550 0
DWIDTH 11 0
BBX 3 15 3 -3
BITMAP
e0
20
20
20
20
20
20
20
20
20
20
20
20
20
e0
ENDCHAR
STARTCHAR asciicircum
ENCODING 94
SWIDTH 550 0
DWIDTH 11 0
BBX 7 4 2 8
BITMAP
10
28
44
82
ENDCHAR
STARTCHAR underscore
ENCODING 95
SWIDTH 550 0
DWIDTH 11 0
BBX 11 1 0 -4
BITMAP
ffe0
ENDCHAR
STARTCHAR quoteleft
ENCODING 96
SWIDTH 550 0
DWIDTH 11 0
BBX 4 5 3 7
BITMAP
c0
c0
60
20
10
ENDCHAR
STARTCHAR a
ENCODING 97
SWIDTH 550 0
DWIDTH 11 0
BBX 7 8 2 0
BITMAP
3c
42
02
7e
82
82
86
7a
ENDCHAR
STARTCHAR b
ENCODING 98
SWIDTH 550 0
DWIDTH 11 0
BBX 8 12 2 0
BITMAP
80
80
80
80
bc
c2
81
81
81
81
c2
bc
ENDCHAR
STARTCHAR c
ENCODING 99
SWIDTH 550 0
DWIDTH 11 0
BBX 7 8 1 0
BITMAP
3c
42
80
80
80
80
42
3c
ENDCHAR
STARTCHAR d
ENCODING 100
SWIDTH 550 0
DWIDTH 11 0
BBX 8 12 1 0
BITMAP
01
01
01
01
3d
43
81
81
81
81
43
3d
ENDCHAR
STARTCHAR e
ENCODING 101
SWIDTH 550 0
DWIDTH 11 0
BBX 8 8 1 0
BITMAP
3c
42
81
ff
80
80
41
3e
ENDCHAR
STARTCHAR f
ENCODING 102
SWIDTH 550 0
DWIDTH 11 0
BBX 8 12 2 0
BITMAP
0f
10
20
20
fe
20
20
20
20
20
20
20
ENDCHAR
STARTCHAR g
ENCODING 103
SWIDTH 550 0
DWIDTH 11 0
BBX 8 12 1 -4
BITMAP
3d
43
81
81
81
81
43
3d
01
01
02
7c
ENDCHAR
STARTCHAR h
ENCODING 104
SWIDTH 550 0
DWIDTH 11 0
BBX 7 12 2 0
BITMAP
80
80
80
80
bc
c2
82
82
82
82
82
82
ENDCHAR
STARTCHAR i
ENCODING 105
SWIDTH 550 0
DWIDTH 11 0
BBX 1 11 5 0
BITMAP
80
80
00
80
80
80
80
80
80
80
80
ENDCHAR
STARTCHAR j
ENCODING 106
SWIDTH 550 0
DWIDTH 11 0
BBX 6 15 2 -4
BITMAP
04
04
00
04
04
04
04
04
04
04
04
04
04
08
f0
ENDCHAR
STARTCHAR k
ENCODING 107
SWIDTH 550 0
DWIDTH 11 0
BBX 6 12 2 0
BITMAP
80
80
80
80
88
88
90
e0
90
88
84
84
ENDCHAR
STARTCHAR l
ENCODING 108
SWIDTH 550 0
DWIDTH 11 0
BBX 1 12 5 0
BITMAP
80
80
80
80
80
80
80
80
80
80
80
80
ENDCHAR
STARTCHAR m
ENCODING 109
SWIDTH 550 0
DWIDTH 11 0
BBX 9 8 1 0
BITMAP
b300
cc80
8880
8880
8880
8880
8880
8880
ENDCHAR
STARTCHAR n
ENCODING 110
SWIDTH 550 0
DWIDTH 11 0
BBX 7 8 2 0
BITMAP
bc
c2
82
82
82
82
82
82
ENDCHAR
STARTCHAR o
ENCODING 111
SWIDTH 550 0
DWIDTH 11 0
BBX 8 8 1 0
BITMAP
3c
42
81
81
81
81
42
3c
ENDCHAR
STARTCHAR p
ENCODING 112
SWIDTH 550 0
DWIDTH 11 0
BBX 8 12 2 -4
BITMAP
bc
c2
81
81
81
81
c2
bc
80
80
80
80
ENDCHAR
STARTCHAR q
ENCODING 113
SWIDTH 550 0
DWIDTH 11 0
BBX 8 12 1 -4
BITMAP
3d
43
81
81
81
81
43
3d
01
01
01
01
ENDCHAR
STARTCHAR r
ENCODING 114
SWIDTH 550 0
DWIDTH 11 0
BBX 6 8 3 0
BITMAP
b8
c4
80
80
80
80
80
80
ENDCHAR
STARTCHAR s
ENCODING 115
SWIDTH 550 0
DWIDTH 11 0
BBX 7 8 2 0
BITMAP
7c
82
80
7c
02
02
82
7c
ENDCHAR
STARTCHAR t
ENCODING 116
SWIDTH 550 0
DWIDTH 11 0
BBX 5 11 3 0
BITMAP
20
20
20
f8
20
20
20
20
20
20
20
ENDCHAR
STARTCHAR u
ENCODING 117
SWIDTH 550 0
DWIDTH 11 0
BBX 7 8 2 0
BITMAP
82
82
82
82
82
82
82
7c
ENDCHAR
STARTCHAR v
ENCODING 118
SWIDTH 550 0
DWIDTH 11 0
BBX 7 8 2 0
BITMAP
82
82
44
44
28
28
10
10
ENDCHAR
STARTCHAR w
ENCODING 119
SWIDTH 550 0
DWIDTH 11 0
BBX 7 8 2 0
BITMAP
82
82
92
92
aa
aa
44
44
ENDCHAR
STARTCHAR x
ENCODING 120
SWIDTH 550 0
DWIDTH 11 0
BBX 6 8 2 0
BITMAP
84
84
48
30
30
48
84
84
ENDCHAR
STARTCHAR y
ENCODING 121
SWIDTH 550 0
DWIDTH 11 0
BBX 7 12 2 -4
BITMAP
82
82
82
44
44
28
28
10
10
20
20
40
ENDCHAR
STARTCHAR z
ENCODING 122
SWIDTH 550 0
DWIDTH 11 0
BBX 7 8 2 0
BITMAP
fe
02
04
08
10
20
40
fe
ENDCHAR
STARTCHAR braceleft
ENCODING 123
SWIDTH 550 0
DWIDTH 11 0
BBX 5 15 3 -3
BITMAP
18
20
20
20
20
20
20
c0
20
20
20
20
20
20
18
ENDCHAR
STARTCHAR bar
ENCODING 124
SWIDTH 550 0
DWIDTH 11 0
BBX 1 15 5 -3
BITMAP
80
80
80
80
80
80
80
80
80
80
80
80
80
80
80
ENDCHAR
STARTCHAR braceright
ENCODING 125
SWIDTH 550 0
DWIDTH 11 0
BBX 5 15 3 -3
BITMAP
c0
20
20
20
20
20
20
18
20
20
20
20
20
20
c0
ENDCHAR
STARTCHAR asciitilde
ENCODING 126
SWIDTH 550 0
DWIDTH 11 0
BBX 8 3 1 4
BITMAP
60
99
06
ENDCHAR
STARTCHAR space
ENCODING 160
SWIDTH 550 0
DWIDTH 11 0
BBX 0 0 0 0
BITMAP
ENDCHAR
STARTCHAR KO_KAI
ENCODING 161
SWIDTH 550 0
DWIDTH 11 0
BBX 7 10 2 0
BITMAP
78
84
c2
42
82
82
82
82
82
82
ENDCHAR
STARTCHAR KHO_KHAI
ENCODING 162
SWIDTH 550 0
DWIDTH 11 0
BBX 8 10 1 0
BITMAP
31
49
a9
49
11
11
11
11
11
3f
ENDCHAR
STARTCHAR KHO_KHUAT
ENCODING 163
SWIDTH 550 0
DWIDTH 11 0
BBX 8 10 1 0
BITMAP
51
a9
a9
d9
29
11
11
11
11
3f
ENDCHAR
STARTCHAR KHO_KHWAI
ENCODING 164
SWIDTH 550 0
DWIDTH 11 0
BBX 8 10 2 0
BITMAP
3c
42
81
89
95
b5
49
41
41
41
ENDCHAR
STARTCHAR KHO_KHON
ENCODING 165
SWIDTH 550 0
DWIDTH 11 0
BBX 8 10 2 0
BITMAP
2c
52
81
89
95
b5
49
41
41
41
ENDCHAR
STARTCHAR KHO_RAKHANG
ENCODING 166
SWIDTH 550 0
DWIDTH 11 0
BBX 9 10 1 0
BITMAP
2880
5480
a480
5480
2880
0880
1880
2c80
2a80
1180
ENDCHAR
STARTCHAR NGO_NGU
ENCODING 167
SWIDTH 550 0
DWIDTH 11 0
BBX 7 10 2 0
BITMAP
04
0a
0a
06
82
42
22
12
0a
04
ENDCHAR
STARTCHAR CHO_CHAN
ENCODING 168
SWIDTH 550 0
DWIDTH 11 0
BBX 7 10 2 0
BITMAP
38
44
82
12
2a
2a
16
02
02
02
ENDCHAR
STARTCHAR CHO_CHING
ENCODING 169
SWIDTH 550 0
DWIDTH 11 0
BBX 9 10 1 0
BITMAP
7800
8400
0200
4200
a200
a200
6700
2a80
3280
2100
ENDCHAR
STARTCHAR CHO_CHANG
ENCODING 170
SWIDTH 550 0
DWIDTH 11 0
BBX 8 12 1 0
BITMAP
01
01
32
4c
aa
49
11
11
11
11
11
3f
ENDCHAR
STARTCHAR SO_SO
ENCODING 171
SWIDTH 550 0
DWIDTH 11 0
BBX 8 12 1 0
BITMAP
01
01
52
ac
aa
d9
29
11
11
11
11
3f
ENDCHAR
STARTCHAR CHO_CHOE
ENCODING 172
SWIDTH 550 0
DWIDTH 11 0
BBX 9 10 1 0
BITMAP
7080
8880
c480
4480
8480
8480
cc80
b680
b580
4880
ENDCHAR
STARTCHAR YO_YING
ENCODING 173
SWIDTH 550 0
DWIDTH 11 0
BBX 9 14 1 -4
BITMAP
7080
8880
c480
4480
8480
8480
c480
a480
a480
4f80
0000
1100
2900
1e00
ENDCHAR
STARTCHAR DO_CHADA
ENCODING 174
SWIDTH 550 0
DWIDTH 11 0
BBX 7 14 2 -4
BITMAP
38
44
62
22
22
22
62
a2
a2
42
02
6a
b2
4e
ENDCHAR
STARTCHAR TO_PATAK
ENCODING 175
SWIDTH 550 0
DWIDTH 11 0
BBX 9 14 0 -4
BITMAP
0e00
1100
1880
0880
0880
0880
1880
2880
2880
1080
0880
5280
b580
4880
ENDCHAR
STARTCHAR THO_THAN
ENCODING 176
SWIDTH 550 0
DWIDTH 11 0
BBX 10 14 0 -4
BITMAP
0700
18c0
0600
0100
0480
0a80
0a80
0580
0080
0080
0800
5280
b580
4880
ENDCHAR
STARTCHAR THO_NANGMONTHO
ENCODING 177
SWIDTH 550 0
DWIDTH 11 0
BBX 9 10 1 0
BITMAP
2900
5680
a480
5480
2880
0880
1080
1080
1080
1080
ENDCHAR
STARTCHAR THO_PHUTHAO
ENCODING 178
SWIDTH 550 0
DWIDTH 11 0
BBX 9 10 1 0
BITMAP
6880
9480
8280
9280
aa80
aa80
5680
6a80
4b80
4480
ENDCHAR
STARTCHAR NO_NEN
ENCODING 179
SWIDTH 550 0
DWIDTH 11 0
BBX 9 10 1 0
BITMAP
6200
9200
ca00
4a00
8a00
8a00
cb00
aa80
aa80
4d00
ENDCHAR
STARTCHAR DO_DEK
ENCODING 180
SWIDTH 550 0
DWIDTH 11 0
BBX 7 10 2 0
BITMAP
38
44
92
aa
aa
92
62
42
42
42
ENDCHAR
STARTCHAR TO_TAO
ENCODING 181
SWIDTH 550 0
DWIDTH 11 0
BBX 7 10 2 0
BITMAP
28
54
82
92
aa
aa
92
62
42
42
ENDCHAR
STARTCHAR THO_THUNG
ENCODING 182
SWIDTH 550 0
DWIDTH 11 0
BBX 7 10 2 0
BITMAP
78
84
c2
42
82
82
c2
a2
a2
42
ENDCHAR
STARTCHAR THO_THAHAN
ENCODING 183
SWIDTH 550 0
DWIDTH 11 0
BBX 8 10 1 0
BITMAP
44
aa
b1
61
21
21
21
21
21
21
ENDCHAR
STARTCHAR THO_THONG
ENCODING 184
SWIDTH 550 0
DWIDTH 11 0
BBX 7 10 2 0
BITMAP
38
46
80
78
04
42
42
42
42
fe
ENDCHAR
STARTCHAR NO_NU
ENCODING 185
SWIDTH 550 0
DWIDTH 11 0
BBX 9 10 1 0
BITMAP
4200
a200
a200
6200
2200
2200
2300
2680
2a80
3100
ENDCHAR
STARTCHAR BO_BAIMAI
ENCODING 186
SWIDTH 550 0
DWIDTH 11 0
BBX 8 10 2 0
BITMAP
41
a1
a1
61
21
21
21
21
21
7f
ENDCHAR
STARTCHAR PO_PLA
ENCODING 187
SWIDTH 550 0
DWIDTH 11 0
BBX 8 15 2 0
BITMAP
01
01
01
01
01
41
a1
a1
61
21
21
21
21
21
7f
ENDCHAR
STARTCHAR PHO_PHUNG
ENCODING 188
SWIDTH 550 0
DWIDTH 11 0
BBX 7 10 2 0
BITMAP
42
a2
a2
c2
82
82
92
92
aa
c6
ENDCHAR
STARTCHAR FO_FA
ENCODING 189
SWIDTH 550 0
DWIDTH 11 0
BBX 7 15 3 0
BITMAP
02
02
02
02
02
42
a2
a2
c2
82
82
92
92
aa
c6
ENDCHAR
STARTCHAR PHO_PHAN
ENCODING 190
SWIDTH 550 0
DWIDTH 11 0
BBX 9 10 1 0
BITMAP
4080
a080
a080
6080
2080
2480
2480
2a80
3180
2080
ENDCHAR
STARTCHAR FO_FAN
ENCODING 191
SWIDTH 550 0
DWIDTH 11 0
BBX 9 15 1 0
BITMAP
0080
0080
0080
0080
0080
4080
a080
a080
6080
2080
2480
2480
2a80
3180
2080
ENDCHAR
STARTCHAR PHO_SAMPHAO
ENCODING 192
SWIDTH 550 0
DWIDTH 11 0
BBX 8 10 1 0
BITMAP
3c
42
61
11
21
21
61
a1
a1
41
ENDCHAR
STARTCHAR MO_MA
ENCODING 193
SWIDTH 550 0
DWIDTH 11 0
BBX 7 10 2 0
BITMAP
42
a2
a2
62
22
22
62
b2
aa
66
ENDCHAR
STARTCHAR YO_YAK
ENCODING 194
SWIDTH 550 0
DWIDTH 11 0
BBX 8 10 1 0
BITMAP
21
51
51
61
41
31
41
41
41
ff
ENDCHAR
STARTCHAR RO_RUA
ENCODING 195
SWIDTH 550 0
DWIDTH 11 0
BBX 6 10 3 0
BITMAP
7c
80
f0
08
04
04
0c
14
14
08
ENDCHAR
STARTCHAR RU
ENCODING 196
SWIDTH 550 0
DWIDTH 11 0
BBX 7 14 2 -4
BITMAP
78
84
c2
42
82
82
c2
a2
a2
42
02
02
02
02
ENDCHAR
STARTCHAR LO_LING
ENCODING 197
SWIDTH 550 0
DWIDTH 11 0
BBX 7 10 2 0
BITMAP
78
84
02
62
92
8a
ca
a6
a2
42
ENDCHAR
STARTCHAR LU
ENCODING 198
SWIDTH 550 0
DWIDTH 11 0
BBX 7 14 2 -4
BITMAP
38
44
82
62
22
22
62
a2
a2
42
02
02
02
02
ENDCHAR
STARTCHAR WO_WAEN
ENCODING 199
SWIDTH 550 0
DWIDTH 11 0
BBX 7 10 2 0
BITMAP
78
84
02
02
02
02
06
0a
0a
04
ENDCHAR
STARTCHAR SO_SALA
ENCODING 200
SWIDTH 550 0
DWIDTH 11 0
BBX 8 13 2 0
BITMAP
01
01
02
3c
42
81
89
95
b5
49
41
41
41
ENDCHAR
STARTCHAR SO_RUSI
ENCODING 201
SWIDTH 550 0
DWIDTH 11 0
BBX 10 10 1 0
BITMAP
4100
a100
a140
6580
2b00
2500
2100
2100
2100
7f00
ENDCHAR
STARTCHAR SO_SUA
ENCODING 202
SWIDTH 550 0
DWIDTH 11 0
BBX 8 12 2 0
BITMAP
01
01
7a
84
02
62
92
8a
ca
a6
a2
42
ENDCHAR
STARTCHAR HO_HIP
ENCODING 203
SWIDTH 550 0
DWIDTH 11 0
BBX 8 10 1 0
BITMAP
42
a5
a5
6e
31
21
21
21
21
21
ENDCHAR
STARTCHAR LO_CHULA
ENCODING 204
SWIDTH 550 0
DWIDTH 11 0
BBX 9 16 1 0
BITMAP
0080
0680
0900
0700
0080
0080
4080
a080
a080
6080
2080
2480
2480
2a80
3180
2080
ENDCHAR
STARTCHAR O_ANG
ENCODING 205
SWIDTH 550 0
DWIDTH 11 0
BBX 7 10 2 0
BITMAP
78
84
02
22
52
52
62
42
42
fe
ENDCHAR
STARTCHAR HO_NOKHUK
ENCODING 206
SWIDTH 550 0
DWIDTH 11 0
BBX 8 12 2 0
BITMAP
01
01
7a
84
02
22
52
52
62
42
42
fe
ENDCHAR
STARTCHAR PAIYANNOI
ENCODING 207
SWIDTH 550 0
DWIDTH 11 0
BBX 7 10 2 0
BITMAP
42
a2
a6
4a
32
02
02
02
02
02
ENDCHAR
STARTCHAR SARA_A
ENCODING 208
SWIDTH 550 0
DWIDTH 11 0
BBX 7 10 2 0
BITMAP
40
a2
a2
44
38
40
a2
a2
44
38
ENDCHAR
STARTCHAR MAI_HAN-AKAT
ENCODING 209
SWIDTH 0 0
DWIDTH 0 0
BBX 7 5 -9 11
BITMAP
40
a2
a2
44
38
ENDCHAR
STARTCHAR SARA_AA
ENCODING 210
SWIDTH 550 0
DWIDTH 11 0
BBX 7 10 2 0
BITMAP
38
44
82
02
02
02
02
02
02
02
ENDCHAR
STARTCHAR SARA_AM
ENCODING 211
SWIDTH 550 0
DWIDTH 11 0
BBX 9 13 0 0
BITMAP
6000
9000
6000
0600
0900
1080
0080
0080
0080
0080
0080
0080
0080
ENDCHAR
STARTCHAR SARA_I
ENCODING 212
SWIDTH 0 0
DWIDTH 0 0
BBX 6 3 -9 11
BITMAP
78
84
fc
ENDCHAR
STARTCHAR SARA_II
ENCODING 213
SWIDTH 0 0
DWIDTH 0 0
BBX 6 4 -9 11
BITMAP
04
74
8c
fc
ENDCHAR
STARTCHAR SARA_UE
ENCODING 214
SWIDTH 0 0
DWIDTH 0 0
BBX 6 4 -9 11
BITMAP
08
74
94
f8
ENDCHAR
STARTCHAR SARA_UEE
ENCODING 215
SWIDTH 0 0
DWIDTH 0 0
BBX 6 4 -9 11
BITMAP
14
74
8c
fc
ENDCHAR
STARTCHAR SARA_U
ENCODING 216
SWIDTH 0 0
DWIDTH 0 0
BBX 3 4 -5 -5
BITMAP
40
a0
60
20
ENDCHAR
STARTCHAR SARA_UU
ENCODING 217
SWIDTH 0 0
DWIDTH 0 0
BBX 5 4 -7 -5
BITMAP
48
a8
68
38
ENDCHAR
STARTCHAR PHINTHU
ENCODING 218
SWIDTH 0 0
DWIDTH 0 0
BBX 4 3 -8 -4
BITMAP
60
f0
60
ENDCHAR
STARTCHAR Ucircumflex
ENCODING 219
SWIDTH 550 0
DWIDTH 11 0
BBX 0 0 0 0
BITMAP
ENDCHAR
STARTCHAR Udieresis
ENCODING 220
SWIDTH 550 0
DWIDTH 11 0
BBX 0 0 0 0
BITMAP
ENDCHAR
STARTCHAR Yacute
ENCODING 221
SWIDTH 550 0
DWIDTH 11 0
BBX 0 0 0 0
BITMAP
ENDCHAR
STARTCHAR Thorn
ENCODING 222
SWIDTH 550 0
DWIDTH 11 0
BBX 0 0 0 0
BITMAP
ENDCHAR
STARTCHAR SYMBOL_BAHT
ENCODING 223
SWIDTH 550 0
DWIDTH 11 0
BBX 9 15 1 -2
BITMAP
1400
1400
fc00
5600
5500
5500
5600
7e00
5500
5480
5480
5500
fe00
1400
1400
ENDCHAR
STARTCHAR SARA_E
ENCODING 224
SWIDTH 550 0
DWIDTH 11 0
BBX 3 10 4 0
BITMAP
80
80
80
80
80
80
c0
a0
a0
40
ENDCHAR
STARTCHAR SARA_AE
ENCODING 225
SWIDTH 550 0
DWIDTH 11 0
BBX 7 10 2 0
BITMAP
88
88
88
88
88
88
cc
aa
aa
44
ENDCHAR
STARTCHAR SARA_O
ENCODING 226
SWIDTH 550 0
DWIDTH 11 0
BBX 6 15 2 0
BITMAP
70
8c
40
20
20
20
20
20
20
20
20
30
28
28
10
ENDCHAR
STARTCHAR SARA_AI_MAIMUAN
ENCODING 227
SWIDTH 550 0
DWIDTH 11 0
BBX 8 15 1 0
BITMAP
30
48
84
a4
d4
64
04
04
04
04
04
06
05
05
02
ENDCHAR
STARTCHAR SARA_AI_MAIMALAI
ENCODING 228
SWIDTH 550 0
DWIDTH 11 0
BBX 8 15 1 0
BITMAP
8c
54
24
04
04
04
04
04
04
04
04
06
05
05
02
ENDCHAR
STARTCHAR LAKKHANGYAO
ENCODING 229
SWIDTH 550 0
DWIDTH 11 0
BBX 7 13 2 -3
BITMAP
38
44
82
02
02
02
02
02
02
02
02
02
02
ENDCHAR
STARTCHAR MAIYAMOK
ENCODING 230
SWIDTH 550 0
DWIDTH 11 0
BBX 7 13 2 -3
BITMAP
68
94
c2
a2
a2
42
02
02
02
02
02
1c
20
ENDCHAR
STARTCHAR MAITAIKHU
ENCODING 231
SWIDTH 0 0
DWIDTH 0 0
BBX 7 6 -9 14
BITMAP
06
38
40
94
aa
44
ENDCHAR
STARTCHAR MAI_EK
ENCODING 232
SWIDTH 0 0
DWIDTH 0 0
BBX 1 4 -4 16
BITMAP
80
80
80
80
ENDCHAR
STARTCHAR MAI_THO
ENCODING 233
SWIDTH 0 0
DWIDTH 0 0
BBX 5 5 -8 15
BITMAP
48
a8
48
30
40
ENDCHAR
STARTCHAR MAI_TRI
ENCODING 234
SWIDTH 0 0
DWIDTH 0 0
BBX 8 5 -9 15
BITMAP
29
55
c5
a6
44
ENDCHAR
STARTCHAR MAI_CHATTAWA
ENCODING 235
SWIDTH 0 0
DWIDTH 0 0
BBX 5 5 -8 15
BITMAP
20
20
f8
20
20
ENDCHAR
STARTCHAR THANTHAKHAT
ENCODING 236
SWIDTH 0 0
DWIDTH 0 0
BBX 5 6 -7 14
BITMAP
08
70
80
c0
a0
40
ENDCHAR
STARTCHAR NIKHAHIT
ENCODING 237
SWIDTH 0 0
DWIDTH 0 0
BBX 4 3 -8 16
BITMAP
60
90
60
ENDCHAR
STARTCHAR YAMAKKAN
ENCODING 238
SWIDTH 0 0
DWIDTH 0 0
BBX 5 5 -8 15
BITMAP
38
40
60
80
60
ENDCHAR
STARTCHAR FONGMAN
ENCODING 239
SWIDTH 550 0
DWIDTH 11 0
BBX 7 10 2 0
BITMAP
38
44
92
aa
aa
aa
aa
92
44
38
ENDCHAR
STARTCHAR THAI_ZERO
ENCODING 240
SWIDTH 550 0
DWIDTH 11 0
BBX 9 10 1 0
BITMAP
1c00
2200
4300
8480
8880
9080
a080
4100
2200
1c00
ENDCHAR
STARTCHAR THAI_ONE
ENCODING 241
SWIDTH 550 0
DWIDTH 11 0
BBX 9 10 1 0
BITMAP
1c00
2200
4100
8880
8480
4480
3880
8100
4200
3c00
ENDCHAR
STARTCHAR THAI_TWO
ENCODING 242
SWIDTH 550 0
DWIDTH 11 0
BBX 10 12 0 0
BITMAP
8000
4000
4500
4a80
5840
5440
5440
4840
4040
4040
2040
1fc0
ENDCHAR
STARTCHAR THAI_THREE
ENCODING 243
SWIDTH 550 0
DWIDTH 11 0
BBX 9 10 1 0
BITMAP
2200
5500
8880
8880
8080
8080
c080
a080
a080
4080
ENDCHAR
STARTCHAR THAI_FOUR
ENCODING 244
SWIDTH 550 0
DWIDTH 11 0
BBX 9 13 1 0
BITMAP
0080
0100
0200
1c00
2000
4000
8400
8a00
8a00
8c00
4400
2200
1f80
ENDCHAR
STARTCHAR THAI_FIVE
ENCODING 245
SWIDTH 550 0
DWIDTH 11 0
BBX 9 15 1 0
BITMAP
0080
0500
0a00
0600
0200
1c00
2000
4000
8400
8a00
8a00
8c00
4400
2200
1f80
ENDCHAR
STARTCHAR THAI_SIX
ENCODING 246
SWIDTH 550 0
DWIDTH 11 0
BBX 9 11 1 0
BITMAP
8000
4000
3e00
0100
0080
2080
5080
5080
6080
4100
3e00
ENDCHAR
STARTCHAR THAI_SEVEN
ENCODING 247
SWIDTH 550 0
DWIDTH 11 0
BBX 9 13 1 0
BITMAP
0400
0200
0100
0080
6c80
9280
9280
8280
8280
c280
a280
a300
4200
ENDCHAR
STARTCHAR THAI_EIGHT
ENCODING 248
SWIDTH 550 0
DWIDTH 11 0
BBX 9 13 1 0
BITMAP
0080
0100
0200
3c00
4000
8000
8000
8000
8000
8900
8a80
5680
2100
ENDCHAR
STARTCHAR THAI_NINE
ENCODING 249
SWIDTH 550 0
DWIDTH 11 0
BBX 9 12 1 0
BITMAP
0080
0080
0480
6a80
9100
8800
8400
8200
4800
3400
1400
0800
ENDCHAR
STARTCHAR ANGKHANKHU
ENCODING 250
SWIDTH 550 0
DWIDTH 11 0
BBX 7 10 2 0
BITMAP
4a
8a
8a
9a
6a
0a
0a
0a
0a
0a
ENDCHAR
STARTCHAR KHOMUT
ENCODING 251
SWIDTH 550 0
DWIDTH 11 0
BBX 9 8 1 2
BITMAP
6000
8000
9000
9580
9600
9400
9800
6000
ENDCHAR
STARTCHAR udieresis
ENCODING 252
SWIDTH 550 0
DWIDTH 11 0
BBX 0 0 0 0
BITMAP
ENDCHAR
STARTCHAR yacute
ENCODING 253
SWIDTH 550 0
DWIDTH 11 0
BBX 0 0 0 0
BITMAP
ENDCHAR
STARTCHAR thorn
ENCODING 254
SWIDTH 550 0
DWIDTH 11 0
BBX 0 0 0 0
BITMAP
ENDCHAR
STARTCHAR ydieresis
ENCODING 255
SWIDTH 550 0
DWIDTH 11 0
BBX 0 0 0 0
BITMAP
ENDCHAR
ENDFONT
